<?xml version="1.0" encoding="UTF-8" standalone="no"?><!DOCTYPE svg PUBLIC "-//W3C//DTD SVG 1.1//EN" "http://www.w3.org/Graphics/SVG/1.1/DTD/svg11.dtd"><svg width="100%" height="100%" viewBox="0 0 2000 2000" version="1.1" xmlns="http://www.w3.org/2000/svg" xmlns:xlink="http://www.w3.org/1999/xlink" xml:space="preserve" xmlns:serif="http://www.serif.com/" style="fill-rule:evenodd;clip-rule:evenodd;stroke-linejoin:round;stroke-miterlimit:2;"><g><path d="M137.069,1600l-124.138,0c-7.142,-0 -12.931,-14.76 -12.931,-32.967l0,-1134.066c0,-18.207 5.789,-32.967 12.931,-32.967l124.138,0c7.142,-0 12.931,14.76 12.931,32.967l0,92.308c-0,18.207 -5.789,32.967 -12.931,32.967l-69.828,0l0,883.516l69.828,0c7.142,0 12.931,14.76 12.931,32.967l0,92.308c-0,18.207 -5.789,32.967 -12.931,32.967Zm0,-32.967l0,-92.308l-82.759,0l0,-949.451l82.759,0l0,-92.308l-124.138,0l0,1134.066l124.138,0Z" style="fill:#fff;"/><path d="M137.069,1567.033l-124.138,0l0,-1134.066l124.138,0l0,92.308l-82.759,0l0,949.451l82.759,0l0,92.308Z"/><path d="M1000,2000c-165.685,0 -310.279,-41.558 -433.976,-123.897c-123.939,-82.5 -220.195,-199.414 -288.419,-351.069c-67.187,-149.349 -101.135,-324.309 -101.135,-525.035c0,-203.139 33.991,-378.709 101.186,-526.881c68.215,-150.423 164.443,-266.732 288.368,-349.223c123.697,-82.338 268.29,-123.897 433.976,-123.897c165.685,0 310.279,41.558 433.976,123.897c123.925,82.49 220.152,198.799 288.368,349.223c67.195,148.172 101.186,323.742 101.186,526.881c0,200.726 -33.948,375.685 -101.135,525.035c-68.224,151.654 -164.479,268.569 -288.419,351.069c-123.697,82.338 -268.29,123.897 -433.976,123.897Zm0,-40c158.074,0 296.119,-39.278 414.133,-117.834c118.014,-78.556 209.503,-190.036 274.465,-334.44c64.962,-144.404 97.443,-313.646 97.443,-507.726c0,-196.39 -32.481,-366.209 -97.443,-509.458c-64.962,-143.249 -156.45,-254.152 -274.465,-332.708c-118.014,-78.556 -256.059,-117.834 -414.133,-117.834c-158.074,0 -296.119,39.278 -414.133,117.834c-118.014,78.556 -209.503,189.458 -274.465,332.708c-64.962,143.249 -97.443,313.069 -97.443,509.458c0,194.079 32.481,363.321 97.443,507.726c64.962,144.404 156.45,255.884 274.465,334.44c118.014,78.556 256.059,117.834 414.133,117.834Zm0,-277.256c-158.074,0 -280.961,-60.65 -368.66,-181.949c-87.699,-121.3 -131.548,-288.231 -131.548,-500.794c0,-212.563 43.849,-379.495 131.548,-500.794c87.699,-121.3 210.585,-181.949 368.66,-181.949c158.074,0 280.961,60.65 368.66,181.949c87.699,121.3 131.548,288.231 131.548,500.794c0,212.563 -43.849,379.495 -131.548,500.794c-87.699,121.3 -210.585,181.949 -368.66,181.949Zm0,-40c145.207,0 258.417,-54.956 338.977,-166.382c83.353,-115.289 123.742,-274.332 123.742,-476.362c0,-202.03 -40.389,-361.073 -123.742,-476.362c-80.56,-111.426 -193.77,-166.382 -338.977,-166.382c-145.207,0 -258.417,54.956 -338.977,166.382c-83.353,115.289 -123.742,274.332 -123.742,476.362c0,202.03 40.389,361.073 123.742,476.362c80.56,111.426 193.77,166.382 338.977,166.382Z" style="fill:#fff;"/><path d="M1000,1960c-158.074,0 -296.119,-39.278 -414.133,-117.834c-118.014,-78.556 -209.503,-190.036 -274.465,-334.44c-64.962,-144.404 -97.443,-313.646 -97.443,-507.726c0,-196.39 32.481,-366.209 97.443,-509.458c64.962,-143.249 156.45,-254.152 274.465,-332.708c118.014,-78.556 256.059,-117.834 414.133,-117.834c158.074,0 296.119,39.278 414.133,117.834c118.014,78.556 209.503,189.458 274.465,332.708c64.962,143.249 97.443,313.069 97.443,509.458c0,194.079 -32.481,363.321 -97.443,507.726c-64.962,144.404 -156.45,255.884 -274.465,334.44c-118.014,78.556 -256.059,117.834 -414.133,117.834Zm0,-277.256c158.074,0 280.961,-60.65 368.66,-181.949c87.699,-121.3 131.548,-288.231 131.548,-500.794c0,-212.563 -43.849,-379.495 -131.548,-500.794c-87.699,-121.3 -210.585,-181.949 -368.66,-181.949c-158.074,0 -280.961,60.65 -368.66,181.949c-87.699,121.3 -131.548,288.231 -131.548,500.794c0,212.563 43.849,379.495 131.548,500.794c87.699,121.3 210.585,181.949 368.66,181.949Z"/><path d="M1850,1567.033l0,-92.308c-0,-18.207 5.789,-32.967 12.931,-32.967l69.828,0l-0,-883.516l-69.828,0c-7.142,0 -12.931,-14.76 -12.931,-32.967l0,-92.308c-0,-18.207 5.789,-32.967 12.931,-32.967l124.138,0c7.142,-0 12.931,14.76 12.931,32.967l0,1134.066c-0,18.207 -5.789,32.967 -12.931,32.967l-124.138,0c-7.142,-0 -12.931,-14.76 -12.931,-32.967Zm12.931,0l124.138,0l0,-1134.066l-124.138,0l0,92.308l82.759,0l0,949.451l-82.759,0l0,92.308Z" style="fill:#fff;"/><path d="M1862.931,1567.033l0,-92.308l82.759,0l0,-949.451l-82.759,0l0,-92.308l124.138,0l0,1134.066l-124.138,0Z"/></g></svg>