<?xml version="1.0" encoding="UTF-8" standalone="no"?>
<!DOCTYPE svg PUBLIC "-//W3C//DTD SVG 1.1//EN" "http://www.w3.org/Graphics/SVG/1.1/DTD/svg11.dtd">
<svg width="100%" height="100%" viewBox="0 0 1000 1000" version="1.1" xmlns="http://www.w3.org/2000/svg" xmlns:xlink="http://www.w3.org/1999/xlink" xml:space="preserve" xmlns:serif="http://www.serif.com/" style="fill-rule:evenodd;clip-rule:evenodd;stroke-linejoin:round;stroke-miterlimit:2;">
    <path d="M1000,400L1000,600C1000,820.766 820.766,1000 600,1000L400,1000C179.234,1000 0,820.766 0,600L0,400C0,179.234 179.234,0 400,0L600,0C820.766,0 1000,179.234 1000,400Z"/>
    <path d="M676.459,85.3L674.067,83.259C651.421,64.734 628.392,54.214 604.982,51.697C567.521,49.325 538.663,57.562 518.407,76.41C532.072,62.802 551.117,54.579 575.542,51.741C603.105,47.56 626.24,51.157 644.948,62.531C689.633,85.367 721.869,127.183 741.656,187.978C767.898,271.976 767.238,380.908 739.675,514.772C717.995,633.778 674.406,736.644 608.906,823.372C663.093,756.255 699.049,691.091 716.776,627.878C741.622,523.517 756.515,436.399 761.457,366.524C762.073,485.231 743.808,588.034 706.661,674.933C665.989,777.778 605.603,857.147 525.504,913.039C456.102,960.796 392.575,962.588 334.923,918.417C305.478,894.478 280.819,857.851 260.944,808.536C252.158,785.622 244.866,744.507 239.068,685.189C237.282,611.12 241.187,547.885 250.783,495.484C262.877,435.77 279.865,377.741 301.748,321.395C340.526,227.024 376.224,165.597 408.842,137.115C428.191,120.103 446.639,113.372 464.186,116.921C480.779,120.812 495.935,132.316 509.656,151.434C460.285,96.454 409.65,121.748 357.752,227.317C289.451,368.696 256.113,506.979 257.738,642.164C258.924,696.31 265.452,746.885 277.322,793.89C239.879,618.27 266.006,433.501 355.702,239.585C408.912,130.684 457.541,99.843 501.588,147.062C498.993,143.791 491.279,138.406 478.443,130.906L461.815,128.814C458.881,128.631 455.986,128.807 453.13,129.342C439.726,135.081 432.073,138.967 430.171,141.003C405.586,160.412 381.238,195.577 357.126,246.499C296.778,372.522 267.076,504.365 268.022,642.027C268.388,681.916 275.208,731.163 288.483,789.767C302.682,828.483 322.685,860.834 348.491,886.818C392.008,928.702 449.375,928.047 520.593,884.853C589.866,840.425 644.917,767.852 685.747,667.132C728.438,548.017 750.067,432.488 750.633,320.545C747.943,212.549 722.152,136.81 673.262,93.328C644.645,68.516 618.071,56.693 593.54,57.859C556.67,56.636 528.725,67.906 509.704,91.669C529.03,64.161 563.572,52.38 613.333,56.327C649.521,65.074 680.462,87.797 706.155,124.496C753.39,196.997 767.543,303.211 748.614,443.139C772.241,270.58 748.19,151.301 676.46,85.301M458.285,929.873L455.074,930.545C398.351,941.769 351.43,922.322 314.311,872.205C332.776,898.287 355.591,917.077 382.755,928.575C388.525,930.891 394.454,932.731 400.542,934.095C406.55,934.93 412.565,935.353 418.585,935.366C433.192,935.104 446.425,933.273 458.285,929.873M514.723,894.391L511.975,896.011C502.557,901.478 493.34,906.274 484.322,910.4C477.42,912.927 472.466,914.602 469.459,915.426L466.536,916.588C464.515,917.153 462.51,917.678 460.521,918.163C449.397,920.72 440.266,922.138 433.129,922.417C425.002,922.898 416.948,922.643 408.966,921.65C427.551,924.526 446.849,923.414 466.86,918.313L469.729,917.313C473.624,916.284 477.499,915.14 481.354,913.881L484.257,912.913L486.166,911.988C495.253,907.035 504.772,901.169 514.723,894.391M689.432,675.066L688.157,678.059C664.899,733.467 635.21,781.907 599.091,823.379C565.285,861.33 527.369,889.892 485.342,909.064C447.786,923.641 414.549,925.35 385.63,914.192C355.515,902.603 329.654,877.119 308.048,837.743C351.395,914.793 410.225,938.219 484.538,908.022C525.634,889.139 563.084,860.666 596.887,822.602C624.217,791.989 650.872,750.996 676.852,699.623C670.636,715.142 665.362,727.411 661.029,736.432C665.307,728.875 671.141,717.248 678.533,701.553L691.554,671.661C698.019,656.065 697.312,657.2 689.433,675.065M757.736,398.65L758.032,395.406C763.831,330.777 761.483,273.316 750.987,223.021C746.177,199.582 739.116,176.916 729.805,155.022C719.927,134.842 709.053,117.774 697.184,103.82C709.714,118.563 720.794,135.907 730.426,155.851C739.533,176.682 746.841,200.412 752.349,227.041C757.829,254.808 760.955,282.881 761.728,311.258C762.488,351.951 761.157,381.082 757.735,398.649M748.599,204.269L748.033,201.486C745.339,188.445 741.956,175.687 737.882,163.212C743.451,177.501 748.083,192.094 751.778,206.989C754.783,218.645 757.52,232.607 759.987,248.873C761.653,260.317 762.448,276.791 762.373,298.295C760.405,262.849 755.814,231.507 748.6,204.269" style="fill:white;fill-rule:nonzero;"/>
</svg>
