<?xml version="1.0" encoding="UTF-8" standalone="no"?><!DOCTYPE svg PUBLIC "-//W3C//DTD SVG 1.1//EN" "http://www.w3.org/Graphics/SVG/1.1/DTD/svg11.dtd"><svg width="100%" height="100%" viewBox="0 0 8334 8334" version="1.1" xmlns="http://www.w3.org/2000/svg" xmlns:xlink="http://www.w3.org/1999/xlink" xml:space="preserve" xmlns:serif="http://www.serif.com/" style="fill-rule:evenodd;clip-rule:evenodd;stroke-linejoin:round;stroke-miterlimit:2;"><g><g><path d="M2189.119,2156.761c-355.209,525.14 -532.81,1223.497 -532.81,2095.07c0,941.443 207.219,1680.779 621.658,2218.017c414.439,537.23 995.161,805.853 1742.175,805.853c481.22,0 893.427,-111.475 1236.633,-334.417c-28.469,42.1 -58.088,83.079 -88.841,122.946c-414.439,537.238 -995.169,805.853 -1742.182,805.853c-747.014,0 -1327.736,-268.615 -1742.175,-805.853c-414.439,-537.23 -621.658,-1276.567 -621.658,-2218.009c0,-941.443 207.219,-1680.779 621.658,-2218.017c147.459,-191.158 315.975,-348.298 505.542,-471.443Z" style="fill:#fff;"/></g><g><path d="M1187.363,1312.124c245.878,-316.012 537.783,-579.426 875.707,-790.241c557.698,-347.922 1210.058,-521.883 1957.072,-521.883c747.014,0 1399.373,173.961 1957.072,521.883c557.698,347.922 990.048,839.111 1297.042,1473.56c306.987,634.449 460.487,1386.576 460.487,2256.388c0,859.579 -153.501,1609.149 -460.487,2248.711c-254.263,529.708 -594.508,959.383 -1020.742,1289.033c161.996,-208.428 304.113,-439.975 426.352,-694.643c306.994,-639.562 460.487,-1389.14 460.487,-2248.711c0,-869.813 -153.493,-1621.94 -460.487,-2256.388c-306.994,-634.449 -739.336,-1125.638 -1297.042,-1473.56c-557.698,-347.922 -1210.058,-521.891 -1957.072,-521.891c-747.014,0 -1399.366,173.968 -1957.072,521.891c-97.609,60.895 -191.386,126.181 -281.317,195.851Z" style="fill:#fff;"/></g></g><g><g><path d="M1725.79,2620.006c-355.209,525.14 -532.81,1223.497 -532.81,2095.07c0,941.443 207.219,1680.779 621.658,2218.017c414.439,537.23 995.161,805.853 1742.175,805.853c481.22,0 893.427,-111.475 1236.633,-334.417c-28.469,42.1 -58.088,83.079 -88.841,122.946c-414.439,537.238 -995.169,805.853 -1742.182,805.853c-747.014,0 -1327.736,-268.615 -1742.175,-805.853c-414.439,-537.23 -621.658,-1276.567 -621.658,-2218.009c0,-941.443 207.219,-1680.779 621.658,-2218.017c147.459,-191.158 315.975,-348.298 505.542,-471.443Z"/></g><g><path d="M724.035,1775.369c245.878,-316.012 537.783,-579.426 875.707,-790.241c557.698,-347.922 1210.058,-521.883 1957.072,-521.883c747.014,0 1399.373,173.961 1957.072,521.883c557.698,347.922 990.048,839.111 1297.042,1473.56c306.987,634.449 460.487,1386.576 460.487,2256.388c0,859.579 -153.501,1609.149 -460.487,2248.711c-254.263,529.708 -594.508,959.383 -1020.742,1289.033c161.996,-208.428 304.113,-439.975 426.352,-694.643c306.994,-639.562 460.487,-1389.14 460.487,-2248.711c0,-869.813 -153.493,-1621.94 -460.487,-2256.388c-306.994,-634.449 -739.336,-1125.638 -1297.042,-1473.56c-557.698,-347.922 -1210.058,-521.891 -1957.072,-521.891c-747.014,0 -1399.366,173.968 -1957.072,521.891c-97.609,60.895 -191.386,126.181 -281.317,195.851Z"/></g></g></svg>