<?xml version="1.0" encoding="UTF-8" standalone="no"?><!DOCTYPE svg PUBLIC "-//W3C//DTD SVG 1.1//EN" "http://www.w3.org/Graphics/SVG/1.1/DTD/svg11.dtd"><svg width="100%" height="100%" viewBox="0 0 2000 2000" version="1.1" xmlns="http://www.w3.org/2000/svg" xmlns:xlink="http://www.w3.org/1999/xlink" xml:space="preserve" xmlns:serif="http://www.serif.com/" style="fill-rule:evenodd;clip-rule:evenodd;stroke-linejoin:round;stroke-miterlimit:2;"><g><path d="M306.358,1526.012l-277.457,0c-15.962,-0 -28.902,-12.94 -28.902,-28.902l0,-994.22c0,-15.962 12.94,-28.902 28.902,-28.902l277.457,0c15.962,-0 28.902,12.94 28.902,28.902l0,80.925c-0,15.962 -12.94,28.902 -28.902,28.902l-156.069,0l0,774.566l156.069,0c15.962,0 28.902,12.94 28.902,28.902l0,80.925c-0,15.962 -12.94,28.902 -28.902,28.902Zm0,-28.902l0,-80.925l-184.971,0l0,-832.37l184.971,0l0,-80.925l-277.457,0l0,994.22l277.457,0Z" style="fill:#fff;"/><path d="M306.358,1497.11l-277.457,0l0,-994.22l277.457,0l0,80.925l-184.971,0l0,832.37l184.971,0l0,80.925Z"/><path d="M1000,1722.543c-127.735,0 -239.209,-30.028 -334.573,-89.521c-95.551,-59.61 -169.759,-144.085 -222.356,-253.662c-51.797,-107.911 -77.97,-234.327 -77.97,-379.36c0,-146.777 26.206,-273.634 78.009,-380.694c52.591,-108.687 126.777,-192.726 222.317,-252.328c95.364,-59.493 206.838,-89.521 334.573,-89.521c127.735,0 239.209,30.028 334.573,89.521c95.54,59.603 169.726,143.641 222.317,252.328c51.804,107.061 78.009,233.917 78.009,380.694c0,145.033 -26.172,271.449 -77.97,379.36c-52.597,109.577 -126.805,194.052 -222.356,253.662c-95.364,59.493 -206.838,89.521 -334.573,89.521Zm0,-28.902c121.867,0 228.292,-28.38 319.275,-85.14c90.983,-56.76 161.516,-137.309 211.598,-241.648c50.082,-104.338 75.124,-226.623 75.124,-366.854c0,-141.9 -25.041,-264.602 -75.124,-368.106c-50.082,-103.504 -120.615,-183.636 -211.598,-240.396c-90.983,-56.76 -197.408,-85.14 -319.275,-85.14c-121.867,0 -228.292,28.38 -319.275,85.14c-90.983,56.76 -161.516,136.892 -211.598,240.396c-50.082,103.504 -75.124,226.206 -75.124,368.106c0,140.231 25.041,262.515 75.124,366.854c50.082,104.338 120.615,184.888 211.598,241.648c90.983,56.76 197.408,85.14 319.275,85.14Zm0,-200.33c-121.867,0 -216.606,-43.822 -284.218,-131.466c-67.611,-87.644 -101.417,-208.259 -101.417,-361.846c0,-153.586 33.806,-274.201 101.417,-361.846c67.611,-87.644 162.351,-131.466 284.218,-131.466c121.867,0 216.606,43.822 284.218,131.466c67.611,87.644 101.417,208.259 101.417,361.846c0,153.586 -33.806,274.201 -101.417,361.846c-67.611,87.644 -162.351,131.466 -284.218,131.466Zm0,-28.902c111.947,0 199.226,-39.708 261.334,-120.218c64.261,-83.301 95.399,-198.217 95.399,-344.192c0,-145.976 -31.138,-260.891 -95.399,-344.192c-62.108,-80.51 -149.387,-120.218 -261.334,-120.218c-111.947,0 -199.226,39.708 -261.334,120.218c-64.261,83.301 -95.399,198.217 -95.399,344.192c0,145.976 31.138,260.891 95.399,344.192c62.108,80.51 149.387,120.218 261.334,120.218Z" style="fill:#fff;"/><path d="M1000,1693.642c-121.867,0 -228.292,-28.38 -319.275,-85.14c-90.983,-56.76 -161.516,-137.309 -211.598,-241.648c-50.082,-104.338 -75.124,-226.623 -75.124,-366.854c0,-141.9 25.041,-264.602 75.124,-368.106c50.082,-103.504 120.615,-183.636 211.598,-240.396c90.983,-56.76 197.408,-85.14 319.275,-85.14c121.867,0 228.292,28.38 319.275,85.14c90.983,56.76 161.516,136.892 211.598,240.396c50.082,103.504 75.124,226.206 75.124,368.106c0,140.231 -25.041,262.515 -75.124,366.854c-50.082,104.338 -120.615,184.888 -211.598,241.648c-90.983,56.76 -197.408,85.14 -319.275,85.14Zm0,-200.33c121.867,0 216.606,-43.822 284.218,-131.466c67.611,-87.644 101.417,-208.259 101.417,-361.846c0,-153.586 -33.806,-274.201 -101.417,-361.846c-67.611,-87.644 -162.351,-131.466 -284.218,-131.466c-121.867,0 -216.606,43.822 -284.218,131.466c-67.611,87.644 -101.417,208.259 -101.417,361.846c0,153.586 33.806,274.201 101.417,361.846c67.611,87.644 162.351,131.466 284.218,131.466Z"/><path d="M1664.74,1497.11l0,-80.925c-0,-15.962 12.94,-28.902 28.902,-28.902l156.069,0l-0,-774.566l-156.069,0c-15.962,0 -28.902,-12.94 -28.902,-28.902l0,-80.925c-0,-15.962 12.94,-28.902 28.902,-28.902l277.457,0c15.962,-0 28.902,12.94 28.902,28.902l0,994.22c-0,15.962 -12.94,28.902 -28.902,28.902l-277.457,0c-15.962,-0 -28.902,-12.94 -28.902,-28.902Zm28.902,0l277.457,0l0,-994.22l-277.457,0l0,80.925l184.971,0l0,832.37l-184.971,0l0,80.925Z" style="fill:#fff;"/><path d="M1693.642,1497.11l0,-80.925l184.971,0l0,-832.37l-184.971,0l0,-80.925l277.457,0l0,994.22l-277.457,0Z"/></g></svg>