<?xml version="1.0" encoding="UTF-8" standalone="no"?>
<!DOCTYPE svg PUBLIC "-//W3C//DTD SVG 1.1//EN" "http://www.w3.org/Graphics/SVG/1.1/DTD/svg11.dtd">
<svg width="100%" height="100%" viewBox="0 0 2000 2000" version="1.1" xmlns="http://www.w3.org/2000/svg" xmlns:xlink="http://www.w3.org/1999/xlink" xml:space="preserve" xmlns:serif="http://www.serif.com/" style="fill-rule:evenodd;clip-rule:evenodd;stroke-linejoin:round;stroke-miterlimit:2;">
    <g transform="matrix(1,0,0,1,15.710497,0)">
        <g transform="matrix(1.842978,0,0,1.842978,-921.888456,-1124.984649)">
            <path d="M751.483,903.145C703.272,974.42 679.167,1069.205 679.167,1187.5C679.167,1315.278 707.292,1415.625 763.542,1488.542C819.792,1561.458 898.611,1597.917 1000,1597.917C1065.314,1597.917 1121.261,1582.787 1167.843,1552.528C1163.979,1558.242 1159.959,1563.804 1155.785,1569.215C1099.535,1642.132 1020.715,1678.59 919.326,1678.59C817.937,1678.59 739.118,1642.132 682.868,1569.215C626.618,1496.299 598.493,1395.952 598.493,1268.174C598.493,1140.396 626.618,1040.049 682.868,967.132C702.882,941.187 725.754,919.859 751.483,903.145Z" style="fill:white;"/>
        </g>
        <g transform="matrix(1.842978,0,0,1.842978,-921.888456,-1124.984649)">
            <path d="M615.519,788.506C648.891,745.615 688.51,709.863 734.375,681.25C810.069,634.028 898.611,610.417 1000,610.417C1101.389,610.417 1189.931,634.028 1265.625,681.25C1341.319,728.472 1400,795.139 1441.667,881.25C1483.333,967.361 1504.167,1069.444 1504.167,1187.5C1504.167,1304.167 1483.333,1405.903 1441.667,1492.708C1407.157,1564.603 1360.977,1622.921 1303.126,1667.663C1325.113,1639.374 1344.402,1607.947 1360.993,1573.382C1402.66,1486.577 1423.493,1384.84 1423.493,1268.174C1423.493,1150.118 1402.66,1048.035 1360.993,961.924C1319.326,875.813 1260.646,809.146 1184.951,761.924C1109.257,714.702 1020.715,691.09 919.326,691.09C817.937,691.09 729.396,714.702 653.701,761.924C640.453,770.189 627.725,779.05 615.519,788.506Z" style="fill:white;"/>
        </g>
    </g>
    <g transform="matrix(1,0,0,1,15.689503,0)">
        <g transform="matrix(1.842978,0,0,1.842978,-953.267461,-1093.605643)">
            <path d="M751.483,903.145C703.272,974.42 679.167,1069.205 679.167,1187.5C679.167,1315.278 707.292,1415.625 763.542,1488.542C819.792,1561.458 898.611,1597.917 1000,1597.917C1065.314,1597.917 1121.261,1582.787 1167.843,1552.528C1163.979,1558.242 1159.959,1563.804 1155.785,1569.215C1099.535,1642.132 1020.715,1678.59 919.326,1678.59C817.937,1678.59 739.118,1642.132 682.868,1569.215C626.618,1496.299 598.493,1395.952 598.493,1268.174C598.493,1140.396 626.618,1040.049 682.868,967.132C702.882,941.187 725.754,919.859 751.483,903.145Z"/>
        </g>
        <g transform="matrix(1.842978,0,0,1.842978,-953.267461,-1093.605643)">
            <path d="M615.519,788.506C648.891,745.615 688.51,709.863 734.375,681.25C810.069,634.028 898.611,610.417 1000,610.417C1101.389,610.417 1189.931,634.028 1265.625,681.25C1341.319,728.472 1400,795.139 1441.667,881.25C1483.333,967.361 1504.167,1069.444 1504.167,1187.5C1504.167,1304.167 1483.333,1405.903 1441.667,1492.708C1407.157,1564.603 1360.977,1622.921 1303.126,1667.663C1325.113,1639.374 1344.402,1607.947 1360.993,1573.382C1402.66,1486.577 1423.493,1384.84 1423.493,1268.174C1423.493,1150.118 1402.66,1048.035 1360.993,961.924C1319.326,875.813 1260.646,809.146 1184.951,761.924C1109.257,714.702 1020.715,691.09 919.326,691.09C817.937,691.09 729.396,714.702 653.701,761.924C640.453,770.189 627.725,779.05 615.519,788.506Z"/>
        </g>
    </g>
</svg>
